<svg width="661" height="440" viewBox="0 0 661 440" fill="none" xmlns="http://www.w3.org/2000/svg">
<path d="M612.15 238.75C614.727 243.204 616.015 248.004 616.015 252.958C616.015 254.482 615.831 256.246 615.647 257.82C612.15 281.24 585.096 308.305 552.704 316.984L551.416 317.329L551.232 317.379L551.048 317.428L550.864 317.477L550.68 317.527L550.496 317.576L550.312 317.625C549.392 317.872 548.655 318.069 547.735 318.125C531.539 321.512 515.16 319.994 507.43 315.968C510.374 304.7 513.687 287.998 516.08 274.591L520.129 272.744C523.625 290.098 529.883 302.331 540.926 306.231C547.367 308.506 553.072 308.692 558.778 307.164C570.004 304.156 578.654 294.788 580.127 285.248C580.311 284.627 580.311 283.865 580.311 282.912C580.311 276.243 576.63 270.18 567.98 265.829C551.784 257.974 524.546 251.173 522.521 230.566C522.337 230.044 522.337 229.281 522.337 228.71V228.519V227.948V227.757V227.567V227.376V227.186V226.805C522.337 224.518 522.521 222.182 522.889 219.988C526.754 193.23 554.913 171.776 580.495 164.921C581.967 164.527 583.256 164.372 584.728 163.977C601.66 160.393 613.807 162.854 622.089 166.542C619.144 178.001 616.383 190.744 614.175 202.768L609.758 204.523C606.997 190.973 602.764 182.009 597.059 177.25C591.353 172.491 584.36 171.888 577.918 173.614C567.612 176.376 558.778 185.411 557.305 194.952C557.121 195.382 557.121 195.763 557.121 196.144V196.335V196.525V196.906V197.097V197.287V197.478C557.121 202.813 559.514 208.459 565.955 212.64C579.759 222.279 604.236 225.628 612.15 238.75Z" fill="#C76D2E"/>
<path d="M501.437 268.416C504.014 272.87 505.302 277.669 505.302 282.623C505.302 284.148 505.118 285.912 504.934 287.485C501.437 310.905 474.383 337.97 441.991 346.65L440.703 346.995L440.519 347.044L440.335 347.094L440.151 347.143L439.966 347.192L439.782 347.241L439.598 347.291C438.678 347.537 437.942 347.735 437.022 347.791C420.826 351.178 404.446 349.66 396.716 345.634C399.661 334.366 402.974 317.663 405.366 304.256L409.415 302.409C412.912 319.764 419.17 331.996 430.212 335.897C436.654 338.172 442.359 338.358 448.064 336.829C459.291 333.821 467.941 324.454 469.413 314.913C469.597 314.292 469.597 313.53 469.597 312.578C469.597 305.909 465.917 299.845 457.267 295.494C441.071 287.64 413.832 280.839 411.808 260.232C411.624 259.709 411.624 258.947 411.624 258.375V258.185V257.613V257.423V257.232V257.042V256.851V256.47C411.624 254.184 411.808 251.848 412.176 249.653C416.041 222.896 444.199 201.441 469.782 194.587C471.254 194.192 472.542 194.037 474.015 193.643C490.947 190.059 503.093 192.52 511.375 196.208C508.431 207.667 505.67 220.41 503.461 232.434L499.044 234.189C496.284 220.639 492.051 211.674 486.345 206.916C480.64 202.157 473.646 201.554 467.205 203.28C456.898 206.041 448.064 215.077 446.592 224.617C446.408 225.048 446.408 225.429 446.408 225.81V226V226.191V226.572V226.762V226.953V227.143C446.408 232.478 448.801 238.125 455.242 242.306C469.045 251.945 493.523 255.294 501.437 268.416Z" fill="#C76D2E"/>
<path d="M392.316 306.61L395.261 306.774C390.292 322.776 386.059 336.867 381.826 352.482C369.863 362.356 356.612 368.384 343.361 371.934C305.08 382.192 287.043 359.016 287.043 327.577C287.043 323.195 287.412 319.476 287.964 314.946C291.829 288.76 306.736 259.805 332.318 239.803C340.6 233.202 350.538 228.062 360.845 224.348C361.581 223.96 362.317 223.763 363.053 223.565L363.79 223.368L363.974 223.319L364.158 223.269L364.342 223.22L364.526 223.171L364.71 223.122L364.894 223.072L365.078 223.023C380.169 218.979 396.917 220.398 406.12 224.411L394.341 264.34L391.212 265.941L388.267 258.346C380.353 238.936 368.391 229.757 356.428 232.962C345.201 235.97 334.527 249.691 327.349 276.765C326.061 281.493 325.324 286.263 324.588 291.223C323.484 298.569 322.932 305.957 322.932 313.198C322.932 332.823 327.165 351.123 335.447 357.859C338.76 360.592 342.625 361.462 346.858 360.327C353.483 358.552 361.765 351.951 372.071 338.328C378.513 329.743 385.139 319.203 392.316 306.61Z" fill="#C76D2E"/>
<path d="M241.907 254.121L243.563 253.677C258.655 250.586 267.673 257.316 267.673 267.033V267.604V267.795V267.986V268.176C267.673 268.748 267.673 269.129 267.489 269.559C266.569 276.093 259.759 286.683 250.925 289.621L250.189 288.866C250.189 288.294 250.005 288.534 250.005 287.963C249.085 280.016 246.324 263.989 241.539 265.271C238.778 266.011 235.833 271.372 234.361 280.913L231.416 301.136L248.532 296.55L247.612 302.322L230.496 306.908L218.717 387.994C218.533 388.615 218.533 388.996 218.533 389.377V389.567V390.139V390.329V390.52V390.71C218.533 396.045 221.11 398.404 223.871 397.664L223.319 401.242L179.884 412.88L180.436 409.302C183.565 408.464 187.614 402.806 188.902 395.03L200.681 314.897L191.663 317.314L192.583 311.542L201.601 309.125L203.258 298.393C206.755 274.02 225.711 258.461 241.907 254.121Z" fill="#C76D2E"/>
<path d="M141.605 324.058C165.715 317.598 182.647 331.352 182.647 355.169C182.647 357.837 182.462 360.554 182.094 363.32C178.229 391.793 152.832 421.081 126.329 428.182C102.22 434.643 85.2876 420.698 85.2876 396.881C85.2876 394.404 85.4716 391.877 85.8397 389.111C89.7046 360.448 115.103 331.159 141.605 324.058ZM140.501 332.166C131.851 334.484 120.992 357.018 117.495 381.963C116.575 388.116 116.207 393.74 116.207 398.885C116.207 414.89 120.44 424.997 127.065 423.222C136.268 420.756 146.022 398.708 149.887 373.284C150.807 367.13 151.175 361.125 151.175 355.981C151.175 340.166 147.31 330.341 140.501 332.166Z" fill="#C76D2E"/>
<path d="M659.283 38.0155L644.743 41.9113L632.964 123.187C632.964 123.759 632.78 123.998 632.78 124.57C632.78 127.047 634.437 127.746 636.461 127.204C639.222 126.464 642.719 124.003 644.743 120.603L646.952 122.488C644.927 125.507 642.351 128.675 639.958 131.411C635.541 136.406 628.179 140.474 621.002 142.397C611.431 144.962 602.965 143.42 602.965 134.464V134.274V133.893V133.702V133.512V133.321V133.131C602.965 132.75 602.965 132.368 603.149 131.938L614.928 49.9002L605.91 52.3166L606.83 46.5445C620.081 42.0412 637.565 18.6838 647.872 3.72794L650.265 4.61113L645.663 36.1392L660.203 32.2433L659.283 38.0155Z" fill="#C76D2E"/>
<path d="M583.614 137.173V138.316C583.614 144.223 586.191 146.581 588.951 145.841L588.399 149.419L544.781 161.106L545.333 157.528C548.462 156.69 552.695 150.983 553.983 143.207L562.081 88.4493C562.449 86.2547 562.633 84.3001 562.633 82.5853C562.633 75.1544 559.504 73.3252 555.639 74.3608C548.094 76.3827 536.867 90.0609 535.395 99.6011L527.849 151.162C527.665 151.783 527.665 152.736 527.665 153.689C527.665 158.833 530.241 161.572 533.002 160.833L532.45 164.41L489.016 176.048L489.568 172.471C492.696 171.632 496.745 165.975 498.034 158.198L507.42 94.331C507.604 92.9479 507.788 91.9459 507.788 90.9932C507.788 85.6582 505.211 83.1095 502.451 83.8492L503.003 80.2716L505.764 79.5319C516.806 76.5731 529.873 69.4516 538.155 62.8501L540.548 64.3049L537.971 81.3814C547.357 68.1964 559.688 59.3668 569.995 56.6052C582.326 53.3011 592.632 58.161 592.632 74.166C592.632 76.2618 592.448 78.5976 592.08 80.9826C589.319 99.8232 586.375 118.904 583.614 137.173Z" fill="#C76D2E"/>
<path d="M461.346 165.933C471.468 161.887 479.014 153.768 483.983 146.149L487.112 146.454C477.358 167.168 459.505 185.861 437.604 191.729C413.495 198.189 396.931 183.765 396.931 160.138C396.931 157.471 397.115 154.754 397.483 151.988C401.348 123.706 426.562 93.5137 453.064 86.4124C476.805 80.0509 492.081 94.4398 492.081 118.066C492.081 120.924 491.897 123.832 491.345 126.838L428.77 143.604C429.322 160.224 437.236 172.774 456.745 167.547C458.217 167.153 459.689 166.567 461.346 165.933ZM428.77 137.126L462.266 128.151C461.714 104.482 455.088 95.9684 447.175 98.0889C439.813 100.061 432.267 111.42 429.506 128.926C428.954 131.551 428.954 134.219 428.77 137.126Z" fill="#C76D2E"/>
<path d="M382.467 106.662L410.626 99.1173L410.074 102.885C402.16 105.006 396.454 117.967 392.037 127.153L352.284 212.685L338.481 216.384L317.132 140.936C314.187 130.293 311.058 129.226 307.377 130.212L307.93 126.635L351.732 114.898L351.18 118.666C348.419 119.596 347.131 120.704 346.947 122.277V123.23C346.947 124.945 347.683 127.224 348.419 129.885L361.302 176.163L383.203 128.758C385.412 123.784 386.332 120.108 386.884 117.102C387.068 116.481 387.068 115.719 387.068 114.766C387.068 110.955 385.412 109.494 381.915 110.431L382.467 106.662Z" fill="#C76D2E"/>
<path d="M306.289 86.1091L287.333 214.656C287.149 215.277 287.149 216.229 287.149 217.563C287.149 223.47 289.909 225.969 292.67 225.229L292.118 228.807L255.125 238.719L257.334 222.884C250.892 233.566 242.61 242.072 229.911 245.475C210.587 250.653 201.752 236.062 201.752 216.818C201.752 213.579 201.936 210.291 202.489 206.523C205.985 180.435 224.39 149.21 253.101 141.517L254.021 141.27C261.198 139.347 265.8 140.781 269.296 143.084L273.345 116.086C273.529 115.465 273.529 114.512 273.529 113.178C273.529 107.272 270.769 104.963 268.008 105.703L268.56 102.125C281.075 98.7718 294.878 91.6436 303.712 84.7036L306.289 86.1091ZM238.009 234.541L239.113 234.245C250.156 231.286 260.462 202.23 263.959 178.62C264.695 173.468 265.063 168.606 265.063 164.224C265.063 153.554 262.671 146.955 256.965 148.484C245.371 151.59 235.064 180.074 231.567 203.685C230.831 208.836 230.463 213.508 230.463 217.89C230.463 228.369 232.672 235.209 238.009 234.541Z" fill="#C76D2E"/>
<path d="M173.444 118.656L189.824 238.306C191.296 250.487 194.057 251.271 198.29 250.137L197.738 253.905L149.151 266.924L149.703 262.966C153.2 261.838 154.304 260.399 154.856 258.155V257.393C154.856 255.678 154.672 253.632 154.12 250.922L149.703 218.571L115.103 227.842L100.011 265.42C100.011 265.61 100.011 265.61 99.8269 265.66V265.85C99.6429 266.09 99.6429 266.09 99.6429 266.281L99.4588 266.521V266.711C99.4588 266.902 99.4588 266.902 99.2748 266.951V267.141L99.0908 267.381V267.572V267.762L98.9067 268.002C98.7227 268.242 98.7227 268.433 98.7227 268.623L98.5386 268.863C98.3546 269.103 98.3546 269.484 98.1705 269.724L97.9865 269.964V270.154C97.4344 271.636 97.0663 272.878 96.8822 273.88V274.642C96.8822 276.166 98.3546 276.534 101.115 275.985L100.563 279.943L75.5332 286.65L76.0853 282.882C80.5024 281.698 83.4471 279.385 89.3365 265.232L139.028 142.549C138.108 140.7 136.636 140.523 133.875 140.691L134.427 136.923C143.997 134.358 163.69 123.556 170.868 117.06L173.444 118.656ZM119.151 217.802L148.414 209.961C146.39 193.736 144.181 178.132 141.973 161.957C134.427 180.746 127.065 198.914 119.151 217.802Z" fill="#C76D2E"/>
<path d="M101.135 112.999C101.853 105.457 102.392 98.0945 102.751 90.7319C103.11 86.9608 103.29 83.3692 103.469 79.5982C103.649 77.4432 103.649 75.2883 103.649 73.313L118.015 81.2143L121.786 83.3692L129.328 87.3199L129.508 87.1403C127.173 85.3446 125.018 83.5488 122.864 81.7531C121.786 80.8552 120.529 79.9573 119.452 79.239L116.219 76.5453C112.448 73.6721 108.857 70.7989 105.086 68.1053C106.343 66.8482 107.6 65.5912 108.857 64.1546L114.244 57.6899C117.835 53.38 121.607 49.0702 125.198 44.5808H125.018C120.529 47.9928 116.219 51.7638 111.909 55.3554C109.755 57.1511 107.6 58.9469 105.445 60.9222L103.649 62.5384C103.469 57.1511 103.11 51.7639 102.751 46.197L102.392 40.8097C102.212 38.8344 102.212 37.0386 102.033 35.2429C101.853 31.4718 101.494 27.7007 101.135 24.1091H100.955C100.776 27.7007 100.417 31.4718 100.237 35.2429C100.057 37.0386 99.8778 38.8344 99.8778 40.8097L99.5187 46.197C99.1595 52.123 98.8004 57.8694 98.6208 63.7955L95.3884 61.8201L87.8462 57.6899C82.9977 54.9962 77.9695 52.3026 72.9414 49.7885C77.2512 53.38 81.5611 56.9716 86.0505 60.5631C88.3849 62.1793 90.5399 63.975 92.6948 65.7708C94.1314 66.8482 95.568 67.9257 97.0046 68.8236C93.9518 72.2355 91.0786 75.827 88.0258 79.4186L85.1526 82.6509L77.0717 92.348L77.2512 92.5276L83.716 87.1403L87.1279 84.4467L90.3603 81.5735L98.6208 74.57C98.6208 76.1862 98.6208 77.982 98.8004 79.5982C98.9799 83.3692 99.1595 86.9608 99.5187 90.7319C99.8778 98.0945 100.417 105.457 101.135 112.999Z" fill="#D04D2A"/>
<path d="M44.4832 210.956C45.6165 199.056 46.4665 187.44 47.0332 175.823C47.5999 169.873 47.8832 164.207 48.1665 158.257C48.4499 154.857 48.4499 151.457 48.4499 148.34L71.1165 160.807L77.0665 164.207L88.9664 170.44L89.2497 170.157C85.5664 167.323 82.1664 164.49 78.7664 161.657C77.0664 160.24 75.0831 158.823 73.3831 157.69L68.2831 153.44C62.3332 148.907 56.6665 144.373 50.7165 140.123C52.6999 138.14 54.6832 136.157 56.6665 133.89L65.1665 123.69C70.8331 116.89 76.7831 110.09 82.4498 103.007H82.1664C75.0831 108.39 68.2831 114.34 61.4832 120.007C58.0832 122.84 54.6832 125.673 51.2832 128.79L48.4499 131.34C48.1665 122.84 47.5999 114.34 47.0332 105.557L46.4665 97.0567C46.1832 93.9401 46.1832 91.1067 45.8999 88.2734C45.6165 82.3234 45.0499 76.3734 44.4832 70.7068H44.1999C43.9165 76.3734 43.3499 82.3234 43.0665 88.2734C42.7832 91.1067 42.4999 93.9401 42.4999 97.0567L41.9332 105.557C41.3665 114.907 40.7999 123.973 40.5166 133.323L35.4166 130.207L23.5166 123.69C15.8666 119.44 7.93331 115.19 0 111.223C6.79998 116.89 13.6 122.557 20.6833 128.223C24.3666 130.773 27.7666 133.607 31.1666 136.44C33.4332 138.14 35.6999 139.84 37.9666 141.257C33.1499 146.64 28.6166 152.307 23.7999 157.973L19.2666 163.073L6.51665 178.373L6.79998 178.656L16.9999 170.157L22.3833 165.907L27.4833 161.373L40.5166 150.323C40.5166 152.873 40.5166 155.707 40.7999 158.257C41.0832 164.207 41.3665 169.873 41.9332 175.823C42.4999 187.44 43.3499 199.056 44.4832 210.956Z" fill="#D04D2A"/>
</svg>
